<svg id="Laag_1" xmlns="http://www.w3.org/2000/svg" viewBox="0 0 436.72 79.04"><defs><style>.cls-1{fill:#707173;}.cls-2{fill:#0076be;}</style></defs><title>Amacom Logo RGB</title><path class="cls-1" d="M277.63,292.33a1,1,0,0,0-1.87,0l-18.71,31.72a3.55,3.55,0,0,1-2.76,1.58h-2.36c-1,0-1.41-.71-.9-1.58L272.46,288a3.57,3.57,0,0,1,2.77-1.58h2.92a3.6,3.6,0,0,1,2.78,1.58l21.43,36.05c.52.87.11,1.58-.9,1.58h-2.35a3.58,3.58,0,0,1-2.77-1.58Z" transform="translate(-202.65 -269.52)"/><path class="cls-1" d="M306.07,288.25a1.84,1.84,0,0,1,1.83-1.83h4.63a4,4,0,0,1,2.88,1.5l20.82,29.87a1.2,1.2,0,0,0,2.1,0l20.8-29.87a4,4,0,0,1,2.89-1.5h4.61a1.84,1.84,0,0,1,1.84,1.83v35.54a1.85,1.85,0,0,1-1.84,1.84H365a1.85,1.85,0,0,1-1.83-1.84V293a16.36,16.36,0,0,0-.05-1.84s-.52.68-1.09,1.51l-21.8,31.42a4,4,0,0,1-2.88,1.51h-.12a3.93,3.93,0,0,1-2.88-1.51L312.53,292.7c-.57-.83-1.07-1.51-1.09-1.51a15,15,0,0,0-.06,1.84v30.76a1.84,1.84,0,0,1-1.83,1.84H307.9a1.85,1.85,0,0,1-1.83-1.84Z" transform="translate(-202.65 -269.52)"/><path class="cls-1" d="M399,292.33a1,1,0,0,0-1.86,0l-18.72,31.72a3.55,3.55,0,0,1-2.76,1.58h-2.35c-1,0-1.41-.71-.89-1.58L393.81,288a3.6,3.6,0,0,1,2.78-1.58h2.93a3.57,3.57,0,0,1,2.77,1.58l21.41,36.05c.52.87.11,1.58-.9,1.58h-2.35a3.58,3.58,0,0,1-2.77-1.58Z" transform="translate(-202.65 -269.52)"/><path class="cls-2" d="M418.53,303.1c106.75-44.69,210-15.52,220.84-6-9.4-9.57-101.91-54.42-221.71-4.38-126.38,52.78-215-11-215-11h0S296.63,354.14,418.53,303.1Z" transform="translate(-202.65 -269.52)"/><path class="cls-1" d="M476.17,300.66c0-9.91,3.36-14.68,14-14.68h22.59c10.63,0,14,4.77,14,14.68v10.73c0,9.91-3.33,14.69-14,14.69H490.13c-10.6,0-14-4.78-14-14.69Zm45.21-2c0-6.83-4.11-8.35-9.2-8.35H490.67c-5.1,0-9.2,1.52-9.2,8.35v14.72c0,6.83,4.1,8.34,9.2,8.34h21.51c5.09,0,9.2-1.51,9.2-8.34Z" transform="translate(-202.65 -269.52)"/><path class="cls-1" d="M531.1,288.25a1.84,1.84,0,0,1,1.83-1.83h4.63a4,4,0,0,1,2.89,1.5l20.81,29.87a1.19,1.19,0,0,0,2.09,0l20.81-29.87a4,4,0,0,1,2.88-1.5h4.64a1.83,1.83,0,0,1,1.83,1.83v35.54a1.84,1.84,0,0,1-1.83,1.84H590a1.84,1.84,0,0,1-1.83-1.84V293a16.36,16.36,0,0,0-.05-1.84s-.51.68-1.09,1.51l-21.81,31.42a4,4,0,0,1-2.88,1.51h-.11a3.93,3.93,0,0,1-2.88-1.51l-21.8-31.42c-.58-.83-1.07-1.51-1.1-1.51a16.36,16.36,0,0,0-.05,1.84v30.76a1.84,1.84,0,0,1-1.83,1.84h-1.66a1.85,1.85,0,0,1-1.83-1.84Z" transform="translate(-202.65 -269.52)"/><path class="cls-1" d="M471.34,312.41h0c0-.34-.67-.62-1.46-.62h-2.06c-.79,0-1.43.28-1.46.62h0v2.43c0,5.32-2.06,6.83-9.2,6.83H438.57c-5.1,0-9.22-1.51-9.22-8.34V298.58c0-6.83,4.12-8.35,9.22-8.35H457c4.87,0,9,.32,9,7V299h0a.13.13,0,0,0,0,.06c0,.35.66.64,1.46.64h1.73c.8,0,1.46-.29,1.46-.64a.13.13,0,0,0,0-.06h0v-3.36c0-5.25-2.66-9.75-12.29-9.75H438c-10.61,0-14,4.76-14,14.67V311.3c0,9.91,3.36,14.69,14,14.69h20c11,0,13.28-3.85,13.28-11v-2.61Z" transform="translate(-202.65 -269.52)"/><path class="cls-2" d="M254.64,348.47h-1.82v-7.94H250V339h7.39v1.55h-2.78Z" transform="translate(-202.65 -269.52)"/><path class="cls-2" d="M277.1,348.47h-1.82v-4.05h-4.42v4.05H269V339h1.82v3.88h4.42V339h1.82Z" transform="translate(-202.65 -269.52)"/><path class="cls-2" d="M291.24,342.9h4.44v1.49h-4.44v2.52H296v1.56h-6.54V339h6.5v1.55h-4.68Z" transform="translate(-202.65 -269.52)"/><path class="cls-2" d="M316.32,348.47l3.06-9.49h2.75l3,9.49h-1.86l-2.54-8h0l-2.53,8Z" transform="translate(-202.65 -269.52)"/><path class="cls-2" d="M343,348.47h-1.64l-3-8h0l.15,8h-1.82V339h2.93l2.58,7h.05l2.53-7h3v9.49h-1.82l.15-8H346Z" transform="translate(-202.65 -269.52)"/><path class="cls-2" d="M359.17,348.47l3.07-9.49H365l3,9.49h-1.86l-2.53-8h0l-2.53,8Z" transform="translate(-202.65 -269.52)"/><path class="cls-2" d="M544.29,348.47l3.06-9.49h2.75l3,9.49h-1.86l-2.53-8h0l-2.53,8Z" transform="translate(-202.65 -269.52)"/><path class="cls-2" d="M386.48,340.53l-5.26,6.35v0h5.32v1.56H379v-1.54l5.22-6.35v-.05h-5V339h7.28Z" transform="translate(-202.65 -269.52)"/><path class="cls-2" d="M400.28,348.47h-1.82V339h1.82Z" transform="translate(-202.65 -269.52)"/><path class="cls-2" d="M419.7,339h1.82v9.49h-3l-4-7.94h-.06l.15,7.94h-1.82V339h3l4.07,7.93h.05Z" transform="translate(-202.65 -269.52)"/><path class="cls-2" d="M441.82,343.43v1.72c0,2.81-.71,3.4-4.09,3.4-3,0-4.18-.53-4.18-3.75v-2.18c0-3.16,1.25-3.72,4.18-3.72,2.32,0,4.14-.11,4.08,2.94H440c0-1.4-.69-1.38-2.27-1.38-2.12,0-2.33.33-2.35,2.16v2.18c0,2,.33,2.19,2.35,2.19,1.74,0,2.27,0,2.27-1.84v-.34h-2.39v-1.38Z" transform="translate(-202.65 -269.52)"/><path class="cls-2" d="M468.71,342.15v-.52c0-1.1-.43-1.17-2-1.17-1.83,0-2.15.3-2.15,2.16v2.1c0,1.9.24,2.27,2.15,2.27,1.47,0,2.13-.05,2.13-1.41v-.51h1.82v.62c0,2.86-1.59,2.76-3.95,2.86-3.34.12-3.93-1-4-3.75v-2.18c0-3,1.17-3.72,4-3.72,2.37,0,3.72,0,3.85,2.73v.52Z" transform="translate(-202.65 -269.52)"/><path class="cls-2" d="M491.23,342.37v2.56c0,3-1.18,3.62-4.05,3.62s-4-.51-4-3.62v-2.56c0-2.95,1-3.47,4-3.47C489.91,338.9,491.23,339.32,491.23,342.37Zm-6.24,0v2.56c0,1.88.36,2.06,2.19,2.06,1.65,0,2.22-.23,2.22-2.06v-2.56c0-1.79-.6-1.91-2.22-1.91C485.21,340.46,485,340.86,485,342.37Z" transform="translate(-202.65 -269.52)"/><path class="cls-2" d="M508.83,348.47H507.2l-3-8h0l.15,8h-1.82V339h2.92l2.58,7h0l2.54-7h3v9.49h-1.82l.15-8h-.06Z" transform="translate(-202.65 -269.52)"/><path class="cls-2" d="M525.87,339h4.2c2.54,0,3.38.6,3.38,3.26s-.9,3.15-3.38,3.15h-2.38v3.08h-1.82Zm4.2,4.86c1.3,0,1.56-.27,1.56-1.6s-.19-1.72-1.56-1.71h-2.38v3.31Z" transform="translate(-202.65 -269.52)"/><path class="cls-2" d="M571.6,339h1.82v9.49h-3l-4-7.94h-.06l.15,7.94h-1.82V339h3l4.07,7.93h0Z" transform="translate(-202.65 -269.52)"/><path class="cls-2" d="M590.14,344.83v3.64h-1.82v-3.64L584.88,339H587l2.25,4h0l2.29-4h2.1Z" transform="translate(-202.65 -269.52)"/></svg>
